<svg xmlns="http://www.w3.org/2000/svg" viewBox="0 0 512 512" role="img" aria-label="Адвокат Диян Данков">
  <defs>
    <linearGradient id="bg" x1="88" y1="42" x2="424" y2="470" gradientUnits="userSpaceOnUse">
      <stop offset="0" stop-color="#d9efb7"/>
      <stop offset="0.48" stop-color="#b7d95a"/>
      <stop offset="1" stop-color="#8faf45"/>
    </linearGradient>
    <linearGradient id="rim" x1="64" y1="34" x2="448" y2="478" gradientUnits="userSpaceOnUse">
      <stop offset="0" stop-color="#fff6dd"/>
      <stop offset="1" stop-color="#ead7a9"/>
    </linearGradient>
    <filter id="softShadow" x="-20%" y="-20%" width="140%" height="140%">
      <feDropShadow dx="0" dy="10" stdDeviation="9" flood-color="#07102b" flood-opacity="0.26"/>
      <feDropShadow dx="0" dy="2" stdDeviation="2" flood-color="#ffffff" flood-opacity="0.3"/>
    </filter>
  </defs>

  <rect width="512" height="512" rx="104" fill="#020403"/>
  <rect x="20" y="20" width="472" height="472" rx="92" fill="url(#rim)"/>
  <rect x="36" y="36" width="440" height="440" rx="78" fill="url(#bg)"/>
  <rect x="49" y="48" width="414" height="414" rx="66" fill="none" stroke="#f8f0d4" stroke-opacity="0.62" stroke-width="3"/>

  <g filter="url(#softShadow)" fill="none" stroke="#07143a" stroke-linecap="round" stroke-linejoin="round">
    <path d="M96 181c52 16 95-25 160-25s108 41 160 25" stroke-width="25"/>
    <path d="M146 190 103 314M146 190l47 124M366 190l-47 124M366 190l43 124" stroke-width="13"/>
    <path d="M256 116v54" stroke-width="23"/>
    <path d="M256 214v146" stroke-width="25"/>
  </g>

  <g filter="url(#softShadow)" fill="#07143a">
    <circle cx="256" cy="111" r="23"/>
    <circle cx="256" cy="169" r="35"/>
    <circle cx="146" cy="190" r="19"/>
    <circle cx="366" cy="190" r="19"/>
    <circle cx="95" cy="181" r="19"/>
    <circle cx="417" cy="181" r="19"/>
    <path d="M85 312h119c-11 29-108 29-119 0Z"/>
    <path d="M307 312h119c-11 29-108 29-119 0Z"/>
    <path d="M238 358h36l15 31h-66Z"/>
    <rect x="207" y="386" width="98" height="18" rx="9"/>
    <rect x="188" y="414" width="136" height="20" rx="8"/>
  </g>
</svg>
